<svg width="1440" height="628" viewBox="0 0 1440 628" fill="none" xmlns="http://www.w3.org/2000/svg">
<path d="M334.764 528.188C272.961 593.679 44.6352 671.401 0 565.359V-63H1440V542.598C1327.73 670.309 1236.51 662.069 1147.47 468.254C1112.39 391.896 1011.48 444.878 996.051 457.387C886.867 545.889 688.069 637.945 634.506 498.54C593.991 341.264 458.369 397.206 334.764 528.188Z" fill="#FFD2CE"/>
<path d="M833.893 64.1563C778.795 80.8786 609.094 58.6732 600.913 -7.6663L730.451 -329L1699.66 61.7133L1574.82 371.407C1472.92 406.253 1413.22 377.289 1393.25 254.016C1385.38 205.451 1306.54 205.166 1293.58 207.376C1201.84 223.009 1049.06 216.146 1041.75 130.323C1046.9 38.9015 944.089 30.7117 833.893 64.1563Z" fill="#FDC150"/>
</svg>
