<svg width="1440" height="192" viewBox="0 0 1440 192" fill="none" xmlns="http://www.w3.org/2000/svg">
<path d="M1150.71 68.9649C1214.24 35.7073 1454.02 -15.3599 1504.63 27.6611L1524.01 302.377L-3.31336 410.143L-21.9948 145.379C93.149 81.1415 190.155 77.9171 290.571 155.989C330.132 186.747 435.523 156.032 451.505 149.408C564.581 102.545 772.596 47.4204 833.706 104.359C881.53 170.088 1023.65 135.48 1150.71 68.9649Z" fill="#34B905"/>
<path d="M1264.83 102.58C1293.22 67.4164 1412.62 7.99989 1446.7 48.4244L1502.35 318.143L705.876 482.465L652.245 222.517C703.035 154.886 754.219 148.013 820.63 221.047C846.794 249.82 897.914 215.563 905.342 208.432C957.895 157.985 1059.7 95.7848 1101.67 149.511C1138.01 212.398 1208.07 172.908 1264.83 102.58Z" fill="#FFB62A"/>
</svg>
